<?xml version="1.0" encoding="utf-8"?><svg viewBox="0 0 502.66 502.66" xmlns="http://www.w3.org/2000/svg" xmlns:xlink="http://www.w3.org/1999/xlink"><style>:root>svg{display:none}:root>svg:target{display:block}</style><svg viewBox="0 0 10 6" id="angle-down" xmlns="http://www.w3.org/2000/svg"><path d="M1.442.273l2.714 2.909c.34.363.848.363 1.188 0L8.058.272c.34-.363.848-.363 1.188 0a.924.924 0 010 1.273L5.344 5.727c-.34.364-.848.364-1.188 0L.254 1.545a.923.923 0 010-1.272c.34-.364.849-.364 1.188 0z"/></svg><svg viewBox="0 0 26 26" id="decore-hero-circle" xmlns="http://www.w3.org/2000/svg"><path d="M1.181 18.4c-2.998-6.496-.08-14.211 6.403-17.216 6.483-3.005 14.182-.081 17.18 6.415 2.999 6.497.081 14.212-6.402 17.217-6.483 3.005-14.182.081-17.18-6.415zm3.566-1.624a9.098 9.098 0 0012.075 4.467 9.133 9.133 0 004.458-12.1c-2.108-4.63-7.456-6.579-12.076-4.467-4.538 2.111-6.564 7.553-4.457 12.1z"/><defs><linearGradient id="ba" x1="7.762" y1="1.126" x2="18.291" y2="24.887" gradientUnits="userSpaceOnUse"><stop stop-color="#BFF0DD"/><stop offset="1" stop-color="#57D2A3"/></linearGradient></defs></svg><svg viewBox="0 0 21 20" id="decore-hero-plus" xmlns="http://www.w3.org/2000/svg"><path d="M13.673 18.912l-.923-6.443a.63.63 0 01.42-.586l6.458-.92c.252 0 .42-.252.42-.586l-.503-3.599c0-.25-.252-.418-.588-.418l-6.459.92a.63.63 0 01-.587-.418L10.99.418c0-.25-.252-.418-.588-.418L6.794.502c-.251 0-.419.251-.419.586l.923 6.443a.63.63 0 01-.42.586l-6.459.92c-.251 0-.419.252-.419.586l.503 3.599c0 .25.252.418.587.418l6.46-.92a.63.63 0 01.587.418l.922 6.444c0 .25.252.418.587.418l3.607-.502a.63.63 0 00.42-.586z"/></svg><svg viewBox="0 0 32 32" id="decore-hero-plus-nodeg" xmlns="http://www.w3.org/2000/svg"><path d="M19.817 30.843l.005-10.297a.996.996 0 01.788-.823l10.321.011c.395.057.714-.299.789-.823l.021-5.748c.057-.393-.3-.712-.825-.787l-10.321-.012a.998.998 0 01-.826-.787l.005-10.298c.056-.393-.3-.711-.826-.787l-5.76-.025c-.395-.057-.714.299-.79.823l-.004 10.298a.996.996 0 01-.788.823l-10.322-.012c-.394-.056-.713.299-.788.823L.474 18.97c-.056.393.3.712.826.787l10.321.012c.394.056.75.375.825.787l-.004 10.298c-.056.393.3.712.825.787l5.762.025a.996.996 0 00.788-.823z"/></svg><svg viewBox="0 0 502.664 502.664" id="icon" xmlns="http://www.w3.org/2000/svg"><path d="M153.821 358.226L0 274.337v-46.463l153.821-83.414v54.574L46.636 250.523l107.185 53.431v54.272zm26.273 29.358L282.103 115.08h32.227L212.084 387.584h-31.99zm168.749-29.358v-54.272l107.164-52.999-107.164-52.59v-53.927l153.821 83.522v46.183l-153.821 84.083z"/></svg><svg viewBox="0 0 6 11" id="link-arrow" xmlns="http://www.w3.org/2000/svg"><path d="M1 1l4 4.5L1 10"/></svg><svg viewBox="0 0 26 24" id="testimonials-item-stars" xmlns="http://www.w3.org/2000/svg"><path d="M12.585 20.049l6 3.658c1.171.732 2.488-.292 2.195-1.61l-1.61-6.878 5.415-4.682c1.025-.878.44-2.488-.878-2.635l-7.024-.585-2.78-6.439a1.54 1.54 0 00-2.781 0l-2.78 6.585-7.025.586C0 8.049-.439 9.659.44 10.537l5.415 4.682-1.61 6.879c-.293 1.317 1.024 2.195 2.195 1.61l6.146-3.66z"/></svg><svg viewBox="0 0 40 40" id="testimonials-slider-button-next" xmlns="http://www.w3.org/2000/svg"><path d="M18 15l4 4.5-4 4.5"/><circle cx="20" cy="20" r="19"/></svg><svg viewBox="0 0 40 40" id="testimonials-slider-button-prev" xmlns="http://www.w3.org/2000/svg"><path d="M22 25l-4-4.5 4-4.5"/><circle cx="20" cy="20" r="19" transform="rotate(-180 20 20)"/></svg></svg>